<svg width="150" height="50" viewBox="0 0 150 50" fill="none" xmlns="http://www.w3.org/2000/svg">
<path d="M14.4551 0.00341845C14.8345 2.78262 15.5084 5.45413 17.4504 7.62997C18.2976 8.57859 19.3578 9.20588 20.6259 9.45542C21.6099 9.64857 22.1851 9.27083 22.4086 8.29657C22.6701 7.15481 22.4986 6.0233 22.2925 4.89692C22.0673 3.6697 21.6983 2.48008 21.2808 1.28705C21.4939 1.29901 21.5129 1.4631 21.5753 1.57419C22.2578 2.78774 22.6372 4.12094 23.0963 5.42166C23.7477 7.26591 24.5186 9.05034 25.7885 10.5801C26.1783 11.0501 26.6304 11.4518 27.1934 11.7201C27.9592 12.0859 28.6902 12.0483 29.397 11.5749C30.0294 11.151 30.5248 10.5921 30.951 9.98016C32.0182 8.44698 33.12 6.93945 34.3396 5.51908C34.8316 4.94478 35.327 4.3739 35.9005 3.85088C36.0131 3.99616 35.9057 4.10043 35.8675 4.20127C34.7987 7.07106 34.2322 10.0246 34.343 13.0909C34.4123 14.9984 34.8991 16.7794 36.0061 18.3742C37.056 19.8851 38.085 21.4063 38.8196 23.1053C40.0703 25.999 40.5086 29.0021 40.1795 32.1249C39.8642 35.1245 39.0482 37.9772 37.3973 40.5291C34.0676 45.6773 29.3797 48.8547 23.2037 49.7367C19.6194 50.2495 16.0576 50.0717 12.6898 48.6821C5.87283 45.867 1.6579 40.8983 0.294508 33.6734C0.197493 33.1555 0.150719 32.6291 0.0779579 32.106C0.0692959 32.0394 0.105676 31.9488 0 31.9197C0 30.7626 0 29.6055 0 28.4483C0.107409 28.3765 0.0606339 28.2654 0.0675635 28.1714C0.143789 27.2177 0.292775 26.2776 0.502395 25.3444C1.19882 22.2575 2.70427 19.5638 4.61684 17.0649C6.09111 15.1386 7.72649 13.3422 9.24234 11.4484C11.3195 8.85549 13.038 6.07629 13.8834 2.84073C14.126 1.9092 14.3685 0.972548 14.3789 0C14.4031 0.00341845 14.4291 0.00341845 14.4551 0.00341845ZM20.4977 34.8767C15.744 34.8767 10.9886 34.8767 6.2349 34.8767C5.52635 34.8767 5.52981 34.8767 5.56966 35.5621C5.65974 37.1038 5.9785 38.596 6.55193 40.0317C8.92704 45.9627 15.3057 49.8444 21.7676 49.2889C25.5147 48.9658 28.6798 47.419 31.2819 44.7663C33.8406 42.158 35.1469 39.0028 35.3461 35.3878C35.3755 34.8374 35.4656 34.8767 34.835 34.8767C30.0571 34.8767 25.2774 34.8767 20.4977 34.8767ZM21.4904 25.8366C21.4887 29.5713 24.3384 32.359 28.1618 32.3624C31.9004 32.3659 34.7883 29.467 34.8004 25.7204C34.8125 21.7618 31.3495 19.3125 28.2589 19.3194C24.2917 19.3262 21.4921 22.0148 21.4904 25.8366ZM4.8178 25.7033C4.8178 29.414 7.76807 32.4291 11.4078 32.4359C14.9731 32.4445 18.107 29.2704 18.1122 25.6503C18.1157 22.1789 15.1256 19.3057 11.5083 19.3074C7.64334 19.3091 4.81953 22.0097 4.8178 25.7033Z" fill="#FE0101"/>
<path d="M20.4976 34.877C25.2773 34.877 30.057 34.877 34.8367 34.877C35.4673 34.877 35.3772 34.8394 35.3477 35.3881C35.1502 39.0031 33.844 42.1583 31.2835 44.7666C28.6815 47.4193 25.5164 48.9661 21.7692 49.2892C15.3056 49.8447 8.92693 45.963 6.55355 40.032C5.97839 38.5963 5.66136 37.1041 5.57128 35.5624C5.53143 34.877 5.52797 34.877 6.23652 34.877C10.9885 34.877 15.7422 34.877 20.4976 34.877Z" fill="white"/>
<path d="M21.4902 25.8366C21.492 22.0148 24.2898 19.3262 28.2587 19.3194C31.3493 19.3125 34.8124 21.7618 34.8002 25.7204C34.7881 29.4687 31.9002 32.3658 28.1617 32.3624C24.34 32.3573 21.4902 29.5713 21.4902 25.8366ZM27.4566 26.628C26.8451 26.628 26.5402 26.9254 26.5384 27.5253C26.5367 27.9202 26.8226 28.2107 27.2227 28.2193C27.6991 28.2312 28.1513 27.7834 28.1444 27.3048C28.1392 26.8946 27.8689 26.628 27.4566 26.628Z" fill="white"/>
<path d="M4.81787 25.7035C4.81787 22.0082 7.64168 19.3093 11.5084 19.3076C15.1256 19.3059 18.1158 22.1791 18.1123 25.6505C18.1088 29.2707 14.9732 32.4447 11.4079 32.4362C7.76814 32.4293 4.81787 29.416 4.81787 25.7035ZM12.8649 26.6265C12.2828 26.6214 11.9346 26.9205 11.9294 27.4264C11.9259 27.9033 12.21 28.2246 12.6396 28.2246C13.1386 28.2246 13.6115 27.8007 13.6098 27.3546C13.6098 26.9615 13.2702 26.6299 12.8649 26.6265Z" fill="white"/>
<path d="M106.898 29.4982C106.898 26.5344 106.9 23.5723 106.893 20.6085C106.893 20.3726 106.939 20.2769 107.204 20.2393C109.755 19.8855 112.308 19.6941 114.87 20.0752C116.921 20.3795 118.782 21.0939 120.255 22.6134C121.393 23.7877 122.075 25.1858 122.351 26.772C122.751 29.0846 122.595 31.3527 121.665 33.5371C120.495 36.2821 118.325 37.817 115.461 38.516C113.689 38.9485 111.887 39.0083 110.077 38.9587C109.131 38.9314 108.183 38.8767 107.239 38.7895C106.965 38.7639 106.891 38.6904 106.891 38.422C106.901 35.4463 106.898 32.4722 106.898 29.4982ZM109.379 29.4555C109.379 30.0178 109.379 30.5784 109.379 31.1407C109.379 32.9577 109.379 34.7763 109.38 36.5932C109.38 36.735 109.321 36.906 109.58 36.923C111.118 37.0239 112.658 37.0957 114.179 36.7829C116.585 36.2889 118.382 35.0224 119.302 32.7098C119.969 31.0314 120.081 29.2794 119.828 27.5138C119.489 25.1414 118.283 23.3638 115.972 22.4545C113.895 21.6375 111.742 21.7093 109.578 22.0203C109.335 22.0545 109.379 22.2032 109.379 22.3502C109.379 24.7192 109.379 27.0882 109.379 29.4555Z" fill="white"/>
<path d="M63.1633 29.4072C63.1633 32.4137 63.1581 35.422 63.1719 38.4285C63.1737 38.743 63.0749 38.8045 62.7839 38.7943C62.181 38.7738 61.5781 38.7721 60.9753 38.7943C60.6981 38.8045 60.6548 38.7088 60.6548 38.4627C60.6634 35.7638 60.6548 33.065 60.6669 30.3661C60.6686 30.067 60.5959 29.9849 60.2858 29.9866C57.4724 29.9986 54.6589 29.9986 51.8455 29.9884C51.5631 29.9866 51.4713 30.0362 51.4731 30.3422C51.4869 33.041 51.4765 35.7399 51.4887 38.4388C51.4904 38.7379 51.409 38.8062 51.1197 38.796C50.5185 38.7738 49.9139 38.7721 49.311 38.796C49.0183 38.808 48.9697 38.7071 48.9715 38.4439C48.9819 35.7228 48.9784 33.0017 48.9784 30.2806C48.9784 26.9767 48.9819 23.6711 48.9715 20.3671C48.9697 20.0783 49.0373 19.9911 49.337 20.0048C49.9503 20.0304 50.5653 20.027 51.1786 20.0065C51.4419 19.9979 51.4869 20.0868 51.4869 20.3244C51.4783 22.7156 51.4869 25.1051 51.4748 27.4963C51.4731 27.7783 51.5198 27.8809 51.8421 27.8792C54.6676 27.8638 57.4914 27.8672 60.3169 27.8775C60.5889 27.8792 60.6686 27.8211 60.6669 27.5407C60.6548 25.1393 60.6634 22.7378 60.653 20.3364C60.6513 20.08 60.7137 19.9997 60.9822 20.0082C61.6076 20.0287 62.233 20.0287 62.8566 20.0082C63.1165 19.9997 63.1667 20.08 63.1667 20.3227C63.1598 23.348 63.1633 26.3785 63.1633 29.4072Z" fill="white"/>
<path d="M104.306 25.3018C103.488 26.1684 102.729 26.9717 101.969 27.7751C101.063 28.7322 100.16 29.6928 99.2421 30.6397C99.0723 30.8141 99.0827 30.9166 99.223 31.0995C101.099 33.5625 102.967 36.0323 104.836 38.5004C104.895 38.5774 104.95 38.6577 105.013 38.7449C104.93 38.8184 104.838 38.7876 104.756 38.7876C103.92 38.791 103.081 38.7825 102.244 38.7944C102.04 38.7979 101.926 38.7295 101.811 38.5688C100.382 36.5878 98.9458 34.612 97.5114 32.6344C97.4473 32.5455 97.3815 32.4583 97.3052 32.3558C96.9016 32.7968 96.5153 33.2207 96.1255 33.6411C96.0285 33.7471 96.0562 33.8667 96.0562 33.9847C96.0545 35.4717 96.0441 36.9587 96.0631 38.4458C96.0666 38.7517 95.973 38.8047 95.6924 38.7944C95.1016 38.7739 94.5092 38.7739 93.9184 38.7944C93.6499 38.8047 93.565 38.7483 93.5667 38.4611C93.5823 36.446 93.5754 34.4291 93.5754 32.4139C93.5754 28.0622 93.5789 23.7105 93.5685 19.3606C93.5685 19.0785 93.6222 18.9862 93.9253 19.0016C94.5265 19.029 95.1311 19.0238 95.734 19.0033C95.9938 18.9948 96.0614 19.0632 96.0614 19.3247C96.051 22.7277 96.0545 26.1325 96.0545 29.5356C96.0545 30.168 96.0545 30.8021 96.0545 31.5302C96.789 30.4996 97.5582 29.6193 98.3256 28.7391C99.2715 27.6554 100.212 26.5649 101.156 25.4779C101.234 25.389 101.297 25.295 101.449 25.295C102.373 25.3052 103.296 25.3018 104.306 25.3018Z" fill="white"/>
<path d="M132.965 37.0443C132.111 38.1451 131.064 38.7775 129.786 39.0065C128.405 39.2543 127.082 39.1176 125.949 38.222C124.176 36.8204 124.046 33.9284 125.647 32.2927C126.643 31.2757 127.913 30.8091 129.271 30.5134C130.333 30.2826 131.414 30.2296 132.495 30.2006C132.717 30.1937 132.79 30.1339 132.766 29.9203C132.724 29.5494 132.715 29.1733 132.617 28.8093C132.305 27.6658 131.425 26.9599 130.193 26.8796C128.804 26.789 127.482 27.0266 126.273 27.7393C126.096 27.8436 126.039 27.8196 125.98 27.6265C125.855 27.2163 125.706 26.8129 125.564 26.4078C125.521 26.2865 125.49 26.1822 125.642 26.1053C127.839 25.0028 130.12 24.6063 132.485 25.4729C133.99 26.025 134.72 27.2522 135.051 28.7426C135.17 29.2827 135.22 29.8314 135.22 30.3818C135.224 31.9799 135.22 33.5763 135.222 35.1744C135.224 36.2871 135.231 37.3981 135.388 38.5023C135.421 38.7364 135.364 38.8014 135.123 38.7929C134.555 38.7758 133.985 38.7792 133.415 38.7911C133.233 38.7946 133.161 38.745 133.143 38.5621C133.096 38.0887 133.032 37.6135 132.965 37.0443ZM132.805 33.2738C132.805 32.8892 132.804 32.5029 132.807 32.1183C132.809 31.9919 132.788 31.9098 132.627 31.9115C131.331 31.9218 130.039 31.9765 128.821 32.4807C127.828 32.8909 127.156 33.5626 127.054 34.677C126.943 35.8957 127.475 36.8102 128.492 37.1503C128.902 37.287 129.325 37.2887 129.748 37.2563C131.44 37.1229 132.92 35.6992 132.809 34.0327C132.792 33.7814 132.807 33.5267 132.805 33.2738Z" fill="white"/>
<path d="M74.6767 37.0425C74.1223 37.7723 73.5004 38.2834 72.7468 38.6133C71.3505 39.2252 69.9213 39.3277 68.499 38.7227C66.9883 38.08 66.1152 36.5178 66.2521 34.9008C66.4166 32.9711 67.5184 31.773 69.2474 31.0431C70.441 30.5389 71.7022 30.3406 72.9876 30.2535C73.4103 30.2244 73.833 30.2073 74.2575 30.2005C74.4151 30.1971 74.4688 30.1543 74.4688 29.9937C74.4654 29.4501 74.4047 28.9151 74.1882 28.4126C73.7637 27.4247 72.9512 26.9683 71.9118 26.888C70.512 26.7803 69.1798 27.0367 67.9637 27.7563C67.7887 27.8606 67.7523 27.811 67.7021 27.652C67.5721 27.2435 67.4405 26.8367 67.2846 26.4368C67.2135 26.2539 67.2447 26.1684 67.4197 26.0761C68.9979 25.2403 70.6835 24.9378 72.4575 25.0643C73.05 25.107 73.6269 25.2266 74.176 25.454C75.6521 26.0659 76.4247 27.2247 76.7556 28.7186C76.8924 29.3339 76.9409 29.9578 76.9444 30.5868C76.9531 32.7336 76.9513 34.882 76.9721 37.0288C76.9773 37.5553 77.0484 38.0817 77.1073 38.6064C77.1246 38.7569 77.0951 38.7996 76.9444 38.7979C76.319 38.7928 75.6936 38.7893 75.07 38.7996C74.8933 38.803 74.8777 38.7244 74.8638 38.5876C74.8136 38.1022 74.7495 37.6219 74.6767 37.0425ZM74.5312 33.2412C74.5312 32.8771 74.5208 32.5131 74.5346 32.1507C74.5416 31.9593 74.474 31.9097 74.2869 31.9097C73.5714 31.9097 72.8577 31.9439 72.1526 32.0499C71.3211 32.1746 70.5155 32.3797 69.8139 32.872C68.5648 33.7471 68.3691 35.6973 69.431 36.699C70.0044 37.2391 70.7147 37.3143 71.4579 37.2579C73.069 37.1365 74.6039 35.8016 74.5329 34.0343C74.5225 33.7693 74.5312 33.5044 74.5312 33.2412Z" fill="white"/>
<path d="M137.182 25.3016C138.051 25.3016 138.876 25.3101 139.701 25.2965C139.919 25.293 139.953 25.4212 140.007 25.5665C140.743 27.5458 141.481 29.5234 142.214 31.5026C142.763 32.9863 143.349 34.4596 143.791 36.0885C143.976 35.4868 144.127 34.9809 144.288 34.4767C145.246 31.4685 146.329 28.503 147.321 25.5067C147.375 25.3426 147.463 25.2947 147.635 25.2965C148.349 25.3067 149.064 25.3033 149.78 25.2982C149.96 25.2965 150.055 25.3067 149.967 25.5289C148.217 29.9096 146.651 34.3639 144.754 38.6865C144.106 40.1616 143.351 41.5871 142.23 42.7818C141.286 43.7885 140.156 44.503 138.808 44.8739C138.64 44.92 138.555 44.9218 138.5 44.7252C138.348 44.1748 138.174 43.6296 137.999 43.0861C137.947 42.9271 137.979 42.8656 138.143 42.804C140.102 42.0759 141.398 40.6743 142.263 38.8335C142.415 38.5088 142.408 38.2113 142.275 37.8866C140.615 33.7998 138.961 29.7097 137.306 25.6212C137.27 25.534 137.235 25.4417 137.182 25.3016Z" fill="white"/>
<path d="M79.9309 32.1916C79.9898 29.7748 80.8127 27.7066 82.9037 26.276C84.4352 25.2299 86.1693 24.924 87.9987 25.0556C88.8476 25.1171 89.6722 25.2932 90.4639 25.6145C90.6753 25.7 90.755 25.7906 90.6683 26.0281C90.5194 26.4418 90.3964 26.8657 90.2872 27.2913C90.2197 27.5579 90.1556 27.6348 89.8524 27.4998C88.6795 26.9802 87.4409 26.8588 86.1866 27.1015C84.6309 27.4041 83.5326 28.3134 82.9262 29.756C82.3251 31.1849 82.2974 32.6531 82.8067 34.1094C83.5118 36.1262 85.4521 37.2988 87.6644 37.1056C88.4803 37.0338 89.2738 36.8817 90.0274 36.5604C90.1971 36.4869 90.2699 36.4818 90.3097 36.6954C90.3964 37.1603 90.5055 37.6218 90.6302 38.0765C90.6874 38.285 90.6285 38.367 90.4379 38.4388C88.9758 38.9909 87.4686 39.2063 85.9094 39.0644C84.5789 38.943 83.3645 38.5209 82.3199 37.6851C80.9877 36.6202 80.3016 35.2015 80.0349 33.5573C79.9656 33.1112 79.9569 32.6599 79.9309 32.1916Z" fill="white"/>
<path d="M27.4568 26.6279C27.8691 26.6279 28.1393 26.8963 28.1445 27.3065C28.1497 27.7851 27.6993 28.2329 27.2229 28.2209C26.8227 28.2107 26.5368 27.9218 26.5386 27.527C26.5403 26.9253 26.8452 26.6279 27.4568 26.6279Z" fill="#1E1D1D"/>
<path d="M12.8647 26.6265C13.2683 26.6299 13.6096 26.9615 13.6114 27.3546C13.6131 27.8007 13.1384 28.2246 12.6412 28.2246C12.2116 28.2246 11.9275 27.905 11.9309 27.4264C11.9344 26.9222 12.2843 26.6231 12.8647 26.6265Z" fill="#1E1D1D"/>
</svg>
